# xmcd CD database file generated by Grip 3.2.0
# 
# Track frame offsets:
#       150
#       23597
#       61381
#       85622
#       100251
#       112393
#       132017
#       169306
#       218846
#       250476
# 
# Disc length: 3856 seconds
# 
# Revision: 1
# Processed by: cddbd v1.5.2PL0 Copyright (c) Steve Scherf et al.
# Submitted via: Grip 3.2.0
# 
DISCID=880f0e0a
DTITLE=United States Marine Band - Monumental Works for Winds
DYEAR=2006
DGENRE=Other
TTITLE0=Guiseppe Verdi - Triumphal March from Aida (Giuseppe Creatore)
TTITLE1=Igor Stavinsky - Symphonies for Wind Intruments
TTITLE2=Vincent Persichetti - Symphony for Band I. Introduction - Allegro
TTITLE3=Vincent Persichetti - Symphony for Band II. Slowly
TTITLE4=Vincent Persichetti - Symphony for Band III. Dance
TTITLE5=Vincent Persichetti - Symphony for Band IV. Finale
TTITLE6=Jaromir Weinberger - Schwanda the Bagpiper - Polka and Fugue (Glenn Cl
TTITLE6=iffe Bainum)
TTITLE7=Aaron Copland - Emblems
TTITLE8=Percy Grainger - Children's March
TTITLE9=William Walton - Crown Imperial - Coronantion March (W. J. Duthoit)
EXTD=YEAR: 2006
EXTT0=
EXTT1=
EXTT2=
EXTT3=
EXTT4=
EXTT5=
EXTT6=
EXTT7=
EXTT8=
EXTT9=
PLAYORDER=
